<svg xmlns="http://www.w3.org/2000/svg" width="26" height="31" fill="none"><path fill="#fff" d="M21.615 16.424a7.04 7.04 0 0 1 3.325-5.859 7.236 7.236 0 0 0-5.632-3.044c-2.37-.25-4.667 1.418-5.874 1.418-1.231 0-3.09-1.394-5.092-1.353a7.562 7.562 0 0 0-6.312 3.85c-2.73 4.725-.694 11.67 1.92 15.489 1.308 1.87 2.837 3.96 4.837 3.885 1.958-.081 2.689-1.248 5.051-1.248 2.341 0 3.027 1.248 5.068 1.201 2.1-.034 3.424-1.879 4.686-3.767a15.47 15.47 0 0 0 2.142-4.364c-2.468-1.044-4.116-3.527-4.12-6.208ZM17.76 5.009A6.875 6.875 0 0 0 19.333.083a6.995 6.995 0 0 0-4.526 2.342 6.602 6.602 0 0 0-1.614 4.743 5.852 5.852 0 0 0 4.567-2.16Z"/></svg>