<svg xmlns="http://www.w3.org/2000/svg" width="215" height="54" fill="none"><g fill="#838383" clip-path="url(#a)"><path d="M62.785 37.607H78.07v-4.604h-9.853V15.66h-5.433v21.947ZM87.128 34.538c-2.18 0-3.316-1.903-3.316-4.758s1.136-4.788 3.316-4.788c2.179 0 3.345 1.933 3.345 4.788 0 2.855-1.166 4.758-3.345 4.758Zm.03 3.56c5.065 0 8.38-3.59 8.38-8.318 0-4.727-3.315-8.318-8.38-8.318-5.034 0-8.41 3.591-8.41 8.318 0 4.727 3.376 8.319 8.41 8.319ZM104.305 43.04c2.333 0 4.389-.522 5.77-1.75 1.259-1.135 2.088-2.854 2.088-5.218v-14.18h-4.789v1.687h-.061c-.921-1.32-2.333-2.148-4.42-2.148-3.899 0-6.6 3.253-6.6 7.858 0 4.819 3.285 7.459 6.815 7.459 1.903 0 3.1-.768 4.021-1.811h.122v1.565c0 1.903-.89 3.008-3.008 3.008-1.657 0-2.486-.706-2.762-1.535h-4.85c.491 3.285 3.346 5.065 7.674 5.065Zm-.031-10.007c-1.872 0-3.1-1.534-3.1-3.898 0-2.394 1.228-3.929 3.1-3.929 2.087 0 3.192 1.78 3.192 3.899 0 2.21-1.013 3.928-3.192 3.928ZM122.009 34.538c-2.18 0-3.315-1.903-3.315-4.758s1.135-4.788 3.315-4.788c2.179 0 3.345 1.933 3.345 4.788 0 2.855-1.166 4.758-3.345 4.758Zm.03 3.56c5.065 0 8.381-3.59 8.381-8.318 0-4.727-3.316-8.318-8.381-8.318-5.034 0-8.41 3.591-8.41 8.318 0 4.727 3.376 8.319 8.41 8.319ZM131.88 37.607h5.003V21.891h-5.003v15.716Zm0-17.895h5.003V15.66h-5.003v4.052ZM139.054 42.795h5.003V35.98h.062c.982 1.32 2.425 2.118 4.45 2.118 4.114 0 6.846-3.254 6.846-8.349 0-4.727-2.548-8.318-6.723-8.318-2.148 0-3.683.951-4.758 2.363h-.092v-1.903h-4.788v20.904Zm8.226-8.564c-2.148 0-3.376-1.75-3.376-4.298 0-2.547 1.105-4.481 3.284-4.481 2.149 0 3.162 1.78 3.162 4.481 0 2.67-1.167 4.298-3.07 4.298ZM163.561 38.098c4.113 0 7.152-1.78 7.152-5.218 0-4.021-3.253-4.727-6.016-5.188-1.995-.368-3.775-.521-3.775-1.626 0-.983.951-1.443 2.179-1.443 1.381 0 2.333.43 2.517 1.842h4.604c-.245-3.1-2.64-5.034-7.09-5.034-3.715 0-6.784 1.719-6.784 5.034 0 3.683 2.916 4.42 5.648 4.88 2.087.369 3.99.522 3.99 1.934 0 1.013-.951 1.565-2.455 1.565-1.658 0-2.702-.767-2.886-2.332h-4.727c.154 3.468 3.039 5.586 7.643 5.586ZM177.509 38.068c2.179 0 3.56-.86 4.696-2.395h.092v1.934h4.788V21.891h-5.003v8.78c0 1.871-1.044 3.16-2.762 3.16-1.597 0-2.364-.95-2.364-2.67v-9.27h-4.973v10.314c0 3.5 1.903 5.863 5.526 5.863ZM189.262 37.607h5.004v-8.81c0-1.872.92-3.192 2.486-3.192 1.504 0 2.21.982 2.21 2.67v9.332h5.003v-8.81c0-1.872.89-3.192 2.487-3.192 1.504 0 2.21.982 2.21 2.67v9.332h5.003V27.386c0-3.53-1.78-5.955-5.341-5.955-2.026 0-3.714.86-4.942 2.762h-.061c-.798-1.688-2.364-2.762-4.42-2.762-2.272 0-3.776 1.074-4.758 2.7h-.092v-2.24h-4.789v15.716Z"/><path fill-rule="evenodd" d="M11.656 5.758a25.724 25.724 0 0 0-4.92 4.495c5.869-.545 13.326.345 21.983 4.674 9.246 4.622 16.69 4.779 21.871 3.78a25.435 25.435 0 0 0-1.763-4.093c-5.93.626-13.534-.202-22.395-4.632-5.627-2.814-10.587-3.973-14.776-4.224Zm33.707 3.925c-4.684-5.233-11.49-8.526-19.066-8.526-2.225 0-4.384.284-6.442.818 2.787.76 5.748 1.873 8.864 3.43 6.488 3.245 12.09 4.29 16.644 4.278Zm6.335 14.02c-6.26 1.236-14.903.982-25.266-4.2-9.69-4.845-17.4-4.784-22.602-3.628-.268.06-.53.122-.786.188a25.388 25.388 0 0 0-1.615 4.655c.417-.111.847-.217 1.291-.316 6.31-1.402 15.225-1.341 26 4.046 9.689 4.845 17.4 4.784 22.601 3.628.178-.04.354-.08.527-.123a25.992 25.992 0 0 0-.15-4.25Zm-.686 9.648c-6.198 1.084-14.59.668-24.58-4.327-9.69-4.845-17.4-4.784-22.602-3.628a25.508 25.508 0 0 0-3.109.899c-.002.147-.004.294-.004.441 0 14.127 11.452 25.58 25.58 25.58 11.84 0 21.8-8.044 24.715-18.965Z" clip-rule="evenodd"/></g><defs><clipPath id="a"><path fill="#fff" d="M.588.781h213.588V53.22H.588z"/></clipPath></defs></svg>