<svg xmlns="http://www.w3.org/2000/svg" width="214" height="54" fill="none"><g fill="#838383" clip-path="url(#a)"><path d="M64.279 37.557h15.105v-4.55h-9.736V15.87h-5.37v21.687ZM88.333 34.524c-2.153 0-3.275-1.88-3.275-4.702 0-2.82 1.122-4.731 3.275-4.731 2.154 0 3.306 1.91 3.306 4.731 0 2.821-1.152 4.702-3.306 4.702Zm.03 3.518c5.005 0 8.281-3.548 8.281-8.22 0-4.67-3.276-8.22-8.28-8.22-4.975 0-8.311 3.55-8.311 8.22 0 4.672 3.336 8.22 8.31 8.22ZM105.307 42.926c2.306 0 4.338-.516 5.703-1.73 1.243-1.122 2.062-2.82 2.062-5.156V22.027h-4.732v1.668h-.06c-.91-1.304-2.305-2.123-4.368-2.123-3.852 0-6.521 3.215-6.521 7.765 0 4.762 3.245 7.37 6.733 7.37 1.881 0 3.064-.758 3.974-1.79h.121v1.548c0 1.88-.879 2.972-2.972 2.972-1.638 0-2.457-.697-2.73-1.516h-4.793c.486 3.245 3.306 5.005 7.583 5.005Zm-.03-9.889c-1.85 0-3.064-1.516-3.064-3.852 0-2.366 1.214-3.882 3.064-3.882 2.063 0 3.154 1.759 3.154 3.852 0 2.184-1 3.882-3.154 3.882ZM122.802 34.524c-2.154 0-3.276-1.88-3.276-4.702 0-2.82 1.122-4.731 3.276-4.731 2.153 0 3.306 1.91 3.306 4.731 0 2.821-1.153 4.702-3.306 4.702Zm.03 3.518c5.005 0 8.281-3.548 8.281-8.22 0-4.67-3.276-8.22-8.281-8.22-4.974 0-8.311 3.55-8.311 8.22 0 4.672 3.337 8.22 8.311 8.22ZM132.556 37.557h4.944v-15.53h-4.944v15.53Zm0-17.684h4.944V15.87h-4.944v4.003ZM139.646 42.683h4.944v-6.734h.061c.97 1.305 2.396 2.093 4.398 2.093 4.064 0 6.764-3.215 6.764-8.25 0-4.671-2.518-8.22-6.643-8.22-2.123 0-3.64.94-4.701 2.335h-.091v-1.88h-4.732v20.656Zm8.129-8.463c-2.123 0-3.337-1.729-3.337-4.246 0-2.518 1.092-4.429 3.246-4.429 2.123 0 3.124 1.76 3.124 4.429 0 2.639-1.152 4.246-3.033 4.246ZM163.862 38.042c4.065 0 7.068-1.76 7.068-5.156 0-3.974-3.216-4.672-5.945-5.126-1.972-.364-3.731-.516-3.731-1.608 0-.97.94-1.426 2.153-1.426 1.365 0 2.305.425 2.487 1.82h4.55c-.242-3.063-2.608-4.974-7.006-4.974-3.671 0-6.704 1.698-6.704 4.974 0 3.64 2.882 4.368 5.581 4.823 2.063.364 3.943.516 3.943 1.911 0 1-.94 1.547-2.426 1.547-1.638 0-2.669-.758-2.851-2.305h-4.671c.151 3.427 3.002 5.52 7.552 5.52ZM177.646 38.012c2.153 0 3.518-.85 4.641-2.366h.091v1.911h4.731v-15.53h-4.944v8.675c0 1.85-1.031 3.124-2.73 3.124-1.577 0-2.335-.94-2.335-2.639v-9.16h-4.914v10.192c0 3.457 1.881 5.793 5.46 5.793ZM189.259 37.557h4.944V28.85c0-1.85.91-3.154 2.457-3.154 1.486 0 2.184.97 2.184 2.639v9.22h4.944v-8.704c0-1.85.879-3.155 2.457-3.155 1.486 0 2.184.97 2.184 2.639v9.22h4.944v-10.1c0-3.488-1.76-5.884-5.278-5.884-2.002 0-3.67.85-4.884 2.73h-.06c-.789-1.668-2.336-2.73-4.368-2.73-2.245 0-3.731 1.062-4.701 2.67h-.091v-2.215h-4.732v15.53Z"/><path fill-rule="evenodd" d="M26.141 1.675c14.233 0 25.772 11.538 25.772 25.771 0 14.234-11.539 25.772-25.772 25.772-14.233 0-25.77-11.538-25.77-25.772 0-14.233 11.537-25.77 25.77-25.77Zm24.782 25.771c0-13.686-11.095-24.782-24.782-24.782-1.104 0-2.19.073-3.257.213.689-.06 1.386-.091 2.09-.091 13.079 0 23.68 10.602 23.68 23.68s-10.602 23.68-23.68 23.68c-12.382 0-22.544-9.502-23.591-21.612.569 13.182 11.436 23.695 24.758 23.695 13.687 0 24.782-11.096 24.782-24.782Zm-3.258-.98c0-12.532-10.159-22.691-22.69-22.691-1.018 0-2.02.067-3.003.196.605-.05 1.217-.076 1.835-.076 11.924 0 21.59 9.666 21.59 21.59 0 11.923-9.666 21.59-21.59 21.59-11.274 0-20.53-8.643-21.505-19.663.496 12.093 10.457 21.745 22.672 21.745 12.532 0 22.691-10.159 22.691-22.69ZM23.807 4.884c11.377 0 20.6 9.223 20.6 20.6 0 11.378-9.223 20.601-20.6 20.601-11.114 0-20.172-8.8-20.586-19.814.893 9.94 9.246 17.73 19.419 17.73 10.768 0 19.498-8.729 19.498-19.497S33.408 5.006 22.64 5.006c-.557 0-1.109.024-1.654.07a20.786 20.786 0 0 1 2.82-.192Zm17.341 19.62c0-10.222-8.286-18.509-18.508-18.509-.864 0-1.714.06-2.546.174.454-.036.914-.054 1.377-.054 9.614 0 17.408 7.794 17.408 17.407 0 9.614-7.794 17.407-17.408 17.407-9.048 0-16.484-6.904-17.327-15.732.365 9.901 8.506 17.816 18.496 17.816 10.222 0 18.508-8.287 18.508-18.51Zm-19.677-17.4c9.068 0 16.418 7.35 16.418 16.418S30.54 39.94 21.471 39.94c-8.888 0-16.127-7.064-16.409-15.884.761 7.748 7.295 13.8 15.242 13.8 8.46 0 15.317-6.857 15.317-15.315 0-8.46-6.858-15.317-15.317-15.317-.388 0-.772.015-1.153.043a16.562 16.562 0 0 1 2.32-.163Zm13.16 15.437c0-7.913-6.414-14.328-14.327-14.328-.722 0-1.432.054-2.125.157.316-.023.636-.034.958-.034 7.304 0 13.225 5.92 13.225 13.224S26.44 34.784 19.137 34.784c-6.844 0-12.473-5.198-13.155-11.862.202 7.736 6.537 13.946 14.322 13.946 7.913 0 14.328-6.415 14.328-14.327ZM19.138 9.325c6.758 0 12.235 5.478 12.235 12.235 0 6.758-5.477 12.235-12.235 12.235-6.671 0-12.095-5.339-12.232-11.978.616 5.566 5.335 9.895 11.065 9.895 6.149 0 11.134-4.985 11.134-11.134 0-6.148-4.985-11.133-11.134-11.133-.235 0-.469.007-.7.021a12.33 12.33 0 0 1 1.867-.141Zm8.978 11.253c0-5.602-4.542-10.144-10.145-10.144-.563 0-1.114.046-1.652.134A9.043 9.043 0 1 1 7.827 20.71c.07 5.542 4.584 10.013 10.143 10.013 5.603 0 10.145-4.542 10.145-10.145Zm-11.313-9.034a8.054 8.054 0 1 1-8.054 8.022 6.952 6.952 0 0 0 13.837-.95 6.95 6.95 0 0 0-7.21-6.946c.463-.083.94-.126 1.427-.126Zm4.794 7.072a5.962 5.962 0 1 0-11.923 0 5.962 5.962 0 0 0 11.923 0Z" clip-rule="evenodd"/></g><defs><clipPath id="a"><path fill="#fff" d="M0 .46h213.588v53.08H0z"/></clipPath></defs></svg>