<svg xmlns="http://www.w3.org/2000/svg" width="81" height="80" fill="none"><path stroke="#000" stroke-miterlimit="10" stroke-width=".8" d="M32.892 9.6c-8.464-2.448-20.352-7.616-24.608.944-4.656 9.408 3.584 18.256 8.96 25.216 3.696 5.28 2.384 9.792-2.512 14.944C3.788 62.176 8.716 77.536 24.828 77.792c7.024 0 13.536-3.328 19.728-6.656 11.872-6.4 19.2-1.68 26.928-7.232 5.184-3.696 1.52-13.136-.624-18.816a21.92 21.92 0 0 1-.336-14.816c1.6-6.112 2.624-16-4.128-19.056-3.072-1.152-6.608.176-9.808-.864-3.968-1.328-5.952-6.016-9.84-7.568C39.18-.256 38.988 11.2 32.892 9.6Z"/><path stroke="#000" stroke-miterlimit="10" stroke-width=".784" d="M47.292 4.624c3.696 1.44 5.616 5.84 9.392 7.104 2.96.992 6.4-.304 9.248.88 6.4 2.688 5.808 12.32 4.08 18.064A22.672 22.672 0 0 0 70.38 44.8c2 5.44 5.36 14.4.432 17.952-7.392 5.344-14.4 1.04-25.6 7.008-5.872 3.104-12.064 6.256-18.688 6.144-15.2-.224-19.888-14.784-9.776-25.6 4.544-4.88 5.872-9.232 2.32-14.176-4.8-6.736-12.672-15.024-8.24-23.904 4-8.176 15.2-3.424 23.216-1.248 5.76 1.568 6.032-9.2 13.248-6.352Z"/><path stroke="#000" stroke-miterlimit="10" stroke-width=".752" d="M47.756 6.4c3.504 1.36 5.392 5.44 8.96 6.64 2.8.944 6.016-.24 8.752.896 6.128 2.64 5.52 11.664 4.032 17.136a22.24 22.24 0 0 0 .4 13.36c1.856 5.216 4.928 13.68.256 17.104-6.992 5.12-13.664 1.248-24.368 6.768-5.552 2.896-11.392 5.792-17.6 5.648C13.868 73.6 9.388 60 18.716 49.744c4.192-4.608 5.408-8.736 2.096-13.392-4.528-6.4-11.712-14.24-7.52-22.608 3.84-7.632 14.4-3.312 21.92-1.344 5.376 1.44 5.76-8.56 12.544-6Z"/><path stroke="#000" stroke-miterlimit="10" stroke-width=".736" d="M48.22 8.304c3.328 1.296 5.168 5.04 8.528 6.176 2.64.88 5.68-.176 8.256.912 5.76 2.464 5.376 10.912 3.984 16.096a21.968 21.968 0 0 0 .4 12.608c1.744 4.992 4.496 12.976.096 16.256-6.592 4.912-12.96 1.44-23.088 6.544-5.248 2.656-10.736 5.312-16.608 5.136-13.36-.368-17.6-13.12-9.088-22.784 3.84-4.32 4.928-8.208 1.888-12.608-4.176-6.064-10.8-13.456-6.784-21.312 3.616-7.152 13.44-3.2 20.576-1.488 5.088 1.28 5.472-7.936 11.84-5.536Z"/><path stroke="#000" stroke-miterlimit="10" stroke-width=".72" d="M48.684 10.144c3.2 1.152 4.912 4.64 8.096 5.696 2.496.848 5.328-.08 7.744.944 5.424 2.336 5.168 10.208 3.952 15.104a21.757 21.757 0 0 0 .448 11.888c1.6 4.8 4.064 12.24-.08 15.392-6.208 4.688-12.272 1.6-21.808 6.4-4.928 2.432-10.096 4.8-15.584 4.624C19.02 69.68 14.988 57.84 22.7 48.768c3.488-4.048 4.48-7.696 1.696-11.84-3.856-5.728-9.808-12.672-6.08-20 3.408-6.688 12.544-3.2 19.2-1.6C42.3 16.4 42.748 8 48.684 10.144Z"/><path stroke="#000" stroke-miterlimit="10" stroke-width=".688" d="M49.164 11.984c2.96 1.056 4.656 4.224 7.648 5.232 2.336.8 4.992 0 7.248.976 5.072 2.208 4.96 9.488 3.904 14.096a21.616 21.616 0 0 0 .48 11.2c1.456 4.528 3.616 11.52-.272 14.544C62.38 62.4 56.588 59.792 47.66 64c-4.624 2.208-9.44 4.368-14.544 4.144-11.52-.528-15.408-11.472-8.416-19.92 3.2-3.776 4-7.184 1.488-11.056-3.52-5.408-8.864-11.904-5.36-18.704 3.2-6.24 11.632-3.2 17.872-1.824 4.432 1.056 4.944-6.64 10.464-4.656Z"/><path stroke="#000" stroke-miterlimit="10" stroke-width=".672" d="M49.628 13.824c2.768.96 4.432 3.824 7.216 4.8 2.192.736 4.656 0 6.752.992 4.704 2.096 4.8 8.8 3.856 13.104a21.746 21.746 0 0 0 .512 10.48c1.312 4.288 3.2 10.8-.448 13.68-5.392 4.256-10.88 2-19.2 5.856-4.304 1.984-8.784 3.872-13.504 3.632-10.592-.608-14.288-10.64-8-18.48 2.768-3.52 3.536-6.672 1.264-10.288-3.2-5.056-7.888-11.12-4.64-17.408 2.992-5.76 10.752-3.2 16.544-1.968 3.984.752 4.56-6.16 9.648-4.4Z"/><path stroke="#000" stroke-miterlimit="10" stroke-width=".64" d="M50.092 15.664c2.592.864 4.192 3.424 6.784 4.304 2.032.688 4.304.112 6.256 1.008 4.352 1.984 4.528 8.096 3.808 12.112a22.095 22.095 0 0 0 .544 9.696c1.168 4.08 2.736 10.08-.624 12.8-4.992 4.032-10.176 2.192-17.968 5.632-4 1.76-8.128 3.408-12.464 3.12-9.6-.656-13.168-9.808-7.744-17.04 2.432-3.2 3.072-6.176 1.072-9.52-2.832-4.72-6.944-10.336-3.92-16.096 2.784-5.296 9.84-3.2 15.2-2.144 3.76.736 4.352-5.424 9.056-3.872Z"/><path stroke="#000" stroke-miterlimit="10" stroke-width=".624" d="M50.572 17.504c2.4.768 3.936 3.024 6.4 3.84 1.888.64 3.968.176 5.76 1.024 4 1.856 4.304 7.392 3.76 11.2a22.672 22.672 0 0 0 .576 8.96c1.024 3.84 2.304 9.36-.8 11.968-4.592 3.824-9.488 2.384-16.688 5.392-3.696 1.6-7.488 2.944-11.44 2.624-8.752-.72-12.048-8.976-7.392-15.616 2.064-2.96 2.608-5.648.864-8.72-2.48-4.4-6-9.6-3.2-14.8 2.56-4.8 8.944-3.088 13.84-2.304 3.376.48 4.064-4.912 8.32-3.568Z"/><path stroke="#000" stroke-miterlimit="10" stroke-width=".608" d="M51.036 19.344c2.224.672 3.696 2.624 5.904 3.36 1.728.592 3.616.272 5.248 1.056 3.648 1.744 4.096 6.688 3.728 10.144a24.322 24.322 0 0 0 .592 8.224c.896 3.616 1.888 8.656-.96 11.2-4.16 3.536-8.8 2.512-15.36 5.088a22.737 22.737 0 0 1-10.384 2.112c-7.84-.8-10.928-8.144-7.072-14.176a7.23 7.23 0 0 0 .672-8c-2.144-4.064-5.04-8.768-2.496-13.504 2.368-4.352 8-3.04 12.512-2.464 3.024.464 3.792-4.176 7.616-3.04Z"/><path stroke="#000" stroke-miterlimit="10" stroke-width=".576" d="M51.5 21.184c2.048.56 3.472 2.208 5.472 2.896 1.6.544 3.2.336 4.8 1.072 3.296 1.6 3.872 5.984 3.68 9.152a27.968 27.968 0 0 0 .624 7.504c.752 3.376 1.44 7.92-1.152 10.256-3.776 3.392-8 2.784-14.128 4.944a20.655 20.655 0 0 1-9.36 1.6c-6.912-.864-9.808-7.296-6.72-12.8a7.136 7.136 0 0 0 .464-7.184c-1.808-3.728-4.096-8-1.776-12.192 2.16-3.888 7.152-3.008 11.2-2.624 2.672.32 3.504-3.552 6.896-2.624Z"/><path stroke="#000" stroke-miterlimit="10" stroke-width=".56" d="M51.964 23.024c1.872.464 3.2 1.808 5.04 2.432 1.443.259 2.866.622 4.256 1.088 2.928 1.504 3.648 5.28 3.632 8.16a35.55 35.55 0 0 0 .656 6.768c.608 3.2 1.008 7.216-1.328 9.392-3.376 3.2-7.392 2.992-12.8 4.8a18.43 18.43 0 0 1-8.32 1.104 7.84 7.84 0 0 1-6.4-11.296 7.247 7.247 0 0 0 .24-6.4c-1.456-3.408-3.2-7.216-1.04-10.896 1.936-3.424 6.24-2.976 9.808-2.8 2.4.048 3.296-3.088 6.256-2.352Z"/><path stroke="#000" stroke-miterlimit="10" stroke-width=".544" d="M52.444 24.864a38.484 38.484 0 0 1 4.592 1.968c1.283.259 2.541.628 3.76 1.104 2.576 1.392 3.424 4.576 3.584 7.168.112 1.952.384 4.08.688 6.048.464 2.928.56 6.48-1.504 8.528-2.976 2.976-6.688 3.2-11.584 4.496-2.344.75-4.83.953-7.264.592a7.455 7.455 0 0 1-6.064-9.856 7.855 7.855 0 0 0 0-5.632c-1.104-3.072-2.176-6.4-.32-9.6 1.856-3.2 5.328-3.008 8.464-2.944 2.144.032 3.104-2.416 5.648-1.872Z"/><path stroke="#000" stroke-miterlimit="10" stroke-width=".512" d="M52.908 26.704c1.427.381 2.819.884 4.16 1.504 1.101.266 2.173.641 3.2 1.12a8.32 8.32 0 0 1 3.536 6.192c.24 1.68.512 3.536.72 5.296.304 2.704.112 5.76-1.6 7.68-2.608 2.704-6.016 3.392-10.32 4.304-2.048.49-4.18.517-6.24.08a7.28 7.28 0 0 1-5.776-8.464c.329-1.59.274-3.236-.16-4.8-.752-2.752-1.232-5.648.384-8.288 1.616-2.64 4.576-2.912 7.2-3.168 1.744-.16 2.8-1.808 4.896-1.456Z"/><path stroke="#000" stroke-miterlimit="10" stroke-width=".496" d="M53.388 28.544c1.279.194 2.53.538 3.728 1.024.927.293 1.822.679 2.672 1.152a8.577 8.577 0 0 1 3.504 5.2c.385 1.495.637 3.021.752 4.56a9.44 9.44 0 0 1-1.872 6.832 13.2 13.2 0 0 1-9.008 4.032c-1.743.252-3.52.11-5.2-.416a7.632 7.632 0 0 1-5.376-6.992 30.916 30.916 0 0 0-.368-4.064 9.503 9.503 0 0 1 1.104-6.992 8.477 8.477 0 0 1 5.792-3.28c1.472-.288 2.672-1.216 4.272-1.056Z"/><path stroke="#000" stroke-miterlimit="10" stroke-width=".464" d="M53.852 49.936c5.399 0 9.776-4.377 9.776-9.776 0-5.4-4.377-9.776-9.776-9.776-5.4 0-9.776 4.377-9.776 9.776 0 5.4 4.377 9.776 9.776 9.776Z"/></svg>