<svg xmlns="http://www.w3.org/2000/svg" width="61" height="40" fill="none"><g fill="#212326" clip-path="url(#a)"><path d="M56.838 1.25c0 .69.56 1.25 1.25 1.25h1.25a1.25 1.25 0 1 0 0-2.5h-1.25c-.69 0-1.25.56-1.25 1.25ZM20.588 40h6.072l-1.768-1.768a2.5 2.5 0 0 0-1.767-.732h-2.537c-9.665 0-17.5-7.835-17.5-17.5s7.835-17.5 17.5-17.5h20c9.665 0 17.5 7.835 17.5 17.5s-7.835 17.5-17.5 17.5h-7.482a3.75 3.75 0 0 1-2.651-1.098l-2.071-2.071a6.25 6.25 0 0 0-4.42-1.831h-3.376c-6.904 0-12.5-5.596-12.5-12.5s5.596-12.5 12.5-12.5h20c6.904 0 12.5 5.596 12.5 12.5s-5.596 12.5-12.5 12.5h-4.804a3.75 3.75 0 0 1-2.652-1.098l-2.07-2.071a6.25 6.25 0 0 0-4.42-1.831h-6.054a7.5 7.5 0 0 1 0-15h20a7.5 7.5 0 0 1 .151 14.998v.002h-1.83a3.75 3.75 0 0 1-2.652-1.098l-2.07-2.071a6.25 6.25 0 0 0-3.536-1.768l-.063-.063h-10a2.5 2.5 0 0 1 0-5h20a2.5 2.5 0 0 1 0 5h-5l1.768 1.768a2.5 2.5 0 0 0 1.767.732h1.465a5 5 0 0 0 0-10h-20a5 5 0 0 0 0 10h9.179a3.75 3.75 0 0 1 2.652 1.098l2.07 2.071A6.25 6.25 0 0 0 38.91 30h2.304v-.02c5.232-.322 9.375-4.667 9.375-9.98 0-5.523-4.477-10-10-10h-20c-5.523 0-10 4.477-10 10s4.477 10 10 10h6.054a3.75 3.75 0 0 1 2.652 1.098l2.07 2.071A6.25 6.25 0 0 0 35.785 35h4.804c8.284 0 15-6.716 15-15 0-8.284-6.716-15-15-15h-20c-8.284 0-15 6.716-15 15 0 8.284 6.716 15 15 15h3.376a3.75 3.75 0 0 1 2.652 1.098l2.07 2.071A6.25 6.25 0 0 0 33.107 40h7.482c11.046 0 20-8.954 20-20s-8.954-20-20-20h-20c-11.046 0-20 8.954-20 20s8.954 20 20 20Z"/></g><defs><clipPath id="a"><path fill="#fff" d="M.588 0h60v40h-60z"/></clipPath></defs></svg>