<svg xmlns="http://www.w3.org/2000/svg" width="80" height="80" fill="none"><circle cx="40" cy="40" r="40" fill="#007AFF"/><path fill="#fff" d="M40.06 30.925a9.275 9.275 0 1 0 9.274 9.275 9.285 9.285 0 0 0-9.275-9.275Zm1.412 13.959v3.133a7.567 7.567 0 0 1-2.828 0v-3.133a.663.663 0 0 0-.37-.595 4.077 4.077 0 0 1-.658-6.932v3.505a.662.662 0 0 0 .663.663h3.557a.66.66 0 0 0 .663-.663V37.35a4.077 4.077 0 0 1-.657 6.94.663.663 0 0 0-.37.595Zm1.325 2.77v-2.375a5.4 5.4 0 0 0-.712-9.668.663.663 0 0 0-.911.614V40.2H38.94v-3.969a.663.663 0 0 0-.91-.614 5.4 5.4 0 0 0-.712 9.662v2.374a7.95 7.95 0 1 1 5.478.001Z"/><path fill="#fff" d="M51.624 43.873a.614.614 0 0 1 .573-.46h.861a.662.662 0 0 0 .65-.535 13.744 13.744 0 0 0 0-5.355.663.663 0 0 0-.65-.536h-.86a.614.614 0 0 1-.574-.46 12.12 12.12 0 0 0-.792-1.906.614.614 0 0 1 .081-.73l.612-.613a.664.664 0 0 0 .081-.838 13.908 13.908 0 0 0-3.787-3.787.664.664 0 0 0-.838.08l-.612.613a.615.615 0 0 1-.732.08 12.107 12.107 0 0 0-1.906-.791.614.614 0 0 1-.459-.574v-.86a.662.662 0 0 0-.535-.65 13.817 13.817 0 0 0-5.356 0 .662.662 0 0 0-.536.65v.86a.613.613 0 0 1-.458.574 12.11 12.11 0 0 0-1.906.792.616.616 0 0 1-.732-.081l-.612-.612a.664.664 0 0 0-.839-.082 13.905 13.905 0 0 0-3.786 3.788.662.662 0 0 0 .08.838l.613.612a.615.615 0 0 1 .08.732c-.317.611-.582 1.249-.791 1.906a.613.613 0 0 1-.574.459h-.86a.663.663 0 0 0-.65.535 13.744 13.744 0 0 0 0 5.355.662.662 0 0 0 .65.536h.86a.615.615 0 0 1 .574.46c.209.656.474 1.293.792 1.905a.615.615 0 0 1-.081.732l-.612.612a.663.663 0 0 0-.081.839 13.906 13.906 0 0 0 3.786 3.787.662.662 0 0 0 .839-.082l.612-.612a.616.616 0 0 1 .732-.08c.611.317 1.25.582 1.906.791a.614.614 0 0 1 .459.574v.86a.663.663 0 0 0 .535.65c1.768.351 3.588.351 5.356 0a.662.662 0 0 0 .535-.65v-.86a.614.614 0 0 1 .46-.574c.656-.209 1.294-.474 1.905-.792a.617.617 0 0 1 .732.081l.612.612a.663.663 0 0 0 .838.082 13.906 13.906 0 0 0 3.787-3.787.662.662 0 0 0-.08-.84l-.613-.61a.614.614 0 0 1-.08-.733c.317-.612.582-1.249.791-1.905Zm-1.263-.402a10.808 10.808 0 0 1-.703 1.696 1.94 1.94 0 0 0 .318 2.28l.218.218a12.575 12.575 0 0 1-2.67 2.67l-.218-.218a1.938 1.938 0 0 0-2.28-.32c-.544.284-1.111.52-1.696.705a1.94 1.94 0 0 0-1.383 1.837v.303a12.36 12.36 0 0 1-3.777 0v-.303a1.941 1.941 0 0 0-1.382-1.837 10.783 10.783 0 0 1-1.696-.704 1.94 1.94 0 0 0-2.28.32l-.218.217a12.58 12.58 0 0 1-2.67-2.67l.218-.218a1.942 1.942 0 0 0 .32-2.28 10.702 10.702 0 0 1-.705-1.696 1.941 1.941 0 0 0-1.837-1.383h-.303a12.318 12.318 0 0 1 0-3.776h.303a1.94 1.94 0 0 0 1.837-1.383 10.72 10.72 0 0 1 .705-1.697 1.942 1.942 0 0 0-.32-2.28l-.218-.217c.75-1.02 1.65-1.92 2.67-2.67l.218.218a1.941 1.941 0 0 0 2.28.32 10.773 10.773 0 0 1 1.696-.705 1.94 1.94 0 0 0 1.383-1.837v-.303a12.366 12.366 0 0 1 3.776 0v.303a1.94 1.94 0 0 0 1.383 1.837c.585.186 1.152.422 1.697.704a1.94 1.94 0 0 0 2.279-.32l.218-.217c1.02.75 1.92 1.65 2.67 2.67l-.218.218a1.939 1.939 0 0 0-.32 2.28c.284.544.52 1.111.705 1.696a1.94 1.94 0 0 0 1.837 1.383h.303a12.318 12.318 0 0 1 0 3.776h-.303a1.942 1.942 0 0 0-1.837 1.383ZM57.425 26.288a3.312 3.312 0 1 0-6.624 0 3.312 3.312 0 0 0 6.624 0Zm-5.3 0a1.988 1.988 0 1 1 3.976 0 1.988 1.988 0 0 1-3.976 0ZM29.6 54.113a3.313 3.313 0 1 0-6.625 0 3.313 3.313 0 0 0 6.625 0Zm-5.3 0a1.987 1.987 0 1 1 3.975 0 1.987 1.987 0 0 1-3.975 0Z"/><path fill="#fff" d="M23.557 49.806a19.217 19.217 0 0 1 26.249-26.248l.663-1.147a20.543 20.543 0 0 0-28.058 28.058l1.146-.663ZM56.843 30.595A19.217 19.217 0 0 1 30.61 56.852l-.662 1.147a20.542 20.542 0 0 0 28.041-28.068l-1.146.663Z"/></svg>