<svg xmlns="http://www.w3.org/2000/svg" width="80" height="80" fill="none"><circle cx="40" cy="40" r="40" fill="#007AFF"/><path fill="#fff" d="M40.2 21.319c-11.329 0-20.537 9.209-20.537 20.537v3.697c0 3.578 2.544 6.559 5.91 7.26a9.605 9.605 0 0 0 8.996 6.268H40.2c1.1 0 1.988-.888 1.988-1.987a1.993 1.993 0 0 0-1.988-1.988H34.57a5.618 5.618 0 0 1-4.4-2.133h.53c1.1 0 1.988-.888 1.988-1.987V40.12c0-1.1-.887-1.988-1.987-1.988h-3.617a7.39 7.39 0 0 0-3.154.715c1.418-7.698 8.162-13.554 16.271-13.554 8.11 0 14.853 5.856 16.271 13.554a7.39 7.39 0 0 0-3.153-.715H49.7c-1.1 0-1.987.888-1.987 1.987v10.866c0 1.1.888 1.987 1.987 1.987h3.618a7.425 7.425 0 0 0 7.42-7.42v-3.697c0-11.329-9.21-20.537-20.538-20.537Z"/></svg>