<svg xmlns="http://www.w3.org/2000/svg" width="80" height="80" fill="none"><circle cx="40" cy="40" r="40" fill="#007AFF"/><g fill="#fff" clip-path="url(#a)"><path d="M39.599 24.168a1.242 1.242 0 1 0 0 2.484c4.11 0 7.454 3.344 7.454 7.453a1.242 1.242 0 0 0 2.484 0c0-5.48-4.458-9.937-9.938-9.937Z"/><path d="M36.398 19.534c-5.612 1.173-10.163 5.68-11.36 11.327-1.011 4.768.235 9.556 3.418 13.134 1.556 1.75 2.448 4.059 2.448 6.342v2.484a3.733 3.733 0 0 0 2.575 3.544c.491 2.9 3.009 5.234 6.12 5.234 3.112 0 5.63-2.333 6.121-5.234a3.733 3.733 0 0 0 2.575-3.544v-2.484c0-2.288.895-4.57 2.521-6.424a14.873 14.873 0 0 0 3.69-9.807c0-9.405-8.608-16.557-18.108-14.572ZM39.6 59.115c-1.597 0-2.997-1.099-3.514-2.576h7.028c-.517 1.477-1.917 2.576-3.514 2.576Zm6.21-6.294c0 .685-.556 1.242-1.242 1.242h-9.937a1.244 1.244 0 0 1-1.242-1.242V51.58H45.81v1.242Zm3.138-10.545c-1.733 1.976-2.798 4.36-3.069 6.819H33.321a12.277 12.277 0 0 0-3.009-6.75c-2.653-2.983-3.69-6.981-2.844-10.969.987-4.655 4.78-8.437 9.438-9.41 7.952-1.662 15.116 4.31 15.116 12.14a12.39 12.39 0 0 1-3.074 8.17ZM22.127 34.105h-2.485a1.242 1.242 0 1 0 0 2.485h2.485a1.242 1.242 0 1 0 0-2.485ZM22.64 27.894l-1.756-1.756a1.242 1.242 0 1 0-1.756 1.756l1.756 1.757a1.242 1.242 0 1 0 1.757-1.757ZM22.64 41.044a1.242 1.242 0 0 0-1.756 0L19.128 42.8a1.242 1.242 0 1 0 1.756 1.756l1.757-1.756a1.242 1.242 0 0 0 0-1.757ZM59.558 34.105h-2.485a1.242 1.242 0 0 0 0 2.485h2.485a1.242 1.242 0 1 0 0-2.485ZM60.072 26.138a1.242 1.242 0 0 0-1.757 0l-1.756 1.756a1.242 1.242 0 1 0 1.756 1.757l1.757-1.757a1.242 1.242 0 0 0 0-1.756ZM60.072 42.8l-1.757-1.756A1.242 1.242 0 1 0 56.56 42.8l1.756 1.756a1.242 1.242 0 0 0 1.757-1.756Z"/></g><defs><clipPath id="a"><path fill="#fff" d="M18.4 19.2h42.4v42.4H18.4z"/></clipPath></defs></svg>