<svg xmlns="http://www.w3.org/2000/svg" width="16" height="16" fill="none"><path fill="#fff" fill-rule="evenodd" d="M7.894.038A7.766 7.766 0 0 0 .101 7.814c0 3.434 2.24 6.35 5.325 7.387.39.065.52-.162.52-.389v-1.328c-2.176.486-2.63-1.037-2.63-1.037-.358-.907-.877-1.134-.877-1.134-.715-.486.065-.486.065-.486.78.065 1.201.81 1.201.81.682 1.199 1.819.842 2.273.648.065-.518.26-.842.487-1.037-1.72-.194-3.54-.874-3.54-3.855 0-.843.293-1.555.813-2.074-.065-.194-.357-.972.065-2.073 0 0 .65-.195 2.143.81a7.841 7.841 0 0 1 1.948-.26c.65 0 1.332.098 1.949.26 1.493-1.005 2.143-.81 2.143-.81.422 1.069.162 1.846.065 2.073.487.551.812 1.231.812 2.074 0 2.98-1.819 3.628-3.572 3.823.292.227.52.713.52 1.426v2.138c0 .194.129.453.551.389a7.74 7.74 0 0 0 5.326-7.355A7.766 7.766 0 0 0 7.894.038Z" clip-rule="evenodd"/></svg>