<svg xmlns="http://www.w3.org/2000/svg" width="33" height="38" fill="none"><g filter="url(#a)"><path fill="url(#b)" d="M.727 1.414c-.411.435-.654 1.11-.654 1.983v31.209c0 .875.243 1.548.654 1.982l.104.102 17.483-17.483v-.412L.83 1.311l-.104.103Z"/><path fill="url(#c)" d="m24.14 25.037-5.826-5.83v-.412l5.828-5.828.131.075 6.905 3.923c1.971 1.12 1.971 2.954 0 4.075l-6.905 3.923-.132.074Z"/><g filter="url(#d)"><path fill="url(#e)" d="m24.273 24.962-5.96-5.96L.726 36.588c.649.688 1.723.773 2.932.087l20.614-11.714Z"/></g><path fill="url(#f)" d="M24.273 13.04 3.659 1.329C2.449.641 1.376.727.727 1.416l17.587 17.587 5.959-5.962Z"/></g><defs><linearGradient id="b" x1="16.764" x2="-6.918" y1="3.066" y2="26.748" gradientUnits="userSpaceOnUse"><stop stop-color="#00A0FF"/><stop offset=".007" stop-color="#00A1FF"/><stop offset=".26" stop-color="#00BEFF"/><stop offset=".512" stop-color="#00D2FF"/><stop offset=".76" stop-color="#00DFFF"/><stop offset="1" stop-color="#00E3FF"/></linearGradient><linearGradient id="c" x1="33.744" x2="-.4" y1="19.001" y2="19.001" gradientUnits="userSpaceOnUse"><stop stop-color="#FFE000"/><stop offset=".409" stop-color="#FFBD00"/><stop offset=".775" stop-color="orange"/><stop offset="1" stop-color="#FF9C00"/></linearGradient><linearGradient id="e" x1="21.036" x2="-11.08" y1="22.238" y2="54.354" gradientUnits="userSpaceOnUse"><stop stop-color="#FF3A44"/><stop offset="1" stop-color="#C31162"/></linearGradient><linearGradient id="f" x1="-3.702" x2="10.638" y1="-8.974" y2="5.367" gradientUnits="userSpaceOnUse"><stop stop-color="#32A071"/><stop offset=".069" stop-color="#2DA771"/><stop offset=".476" stop-color="#15CF74"/><stop offset=".801" stop-color="#06E775"/><stop offset="1" stop-color="#00F076"/></linearGradient><filter id="a" width="32.584" height="36.296" x=".073" y=".854" color-interpolation-filters="sRGB" filterUnits="userSpaceOnUse"><feFlood flood-opacity="0" result="BackgroundImageFix"/><feBlend in="SourceGraphic" in2="BackgroundImageFix" result="shape"/><feColorMatrix in="SourceAlpha" result="hardAlpha" values="0 0 0 0 0 0 0 0 0 0 0 0 0 0 0 0 0 0 127 0"/><feOffset dy="-.212"/><feComposite in2="hardAlpha" k2="-1" k3="1" operator="arithmetic"/><feColorMatrix values="0 0 0 0 0 0 0 0 0 0 0 0 0 0 0 0 0 0 0.12 0"/><feBlend in2="shape" result="effect1_innerShadow_102_3471"/><feColorMatrix in="SourceAlpha" result="hardAlpha" values="0 0 0 0 0 0 0 0 0 0 0 0 0 0 0 0 0 0 127 0"/><feOffset dy=".212"/><feComposite in2="hardAlpha" k2="-1" k3="1" operator="arithmetic"/><feColorMatrix values="0 0 0 0 1 0 0 0 0 1 0 0 0 0 1 0 0 0 0.25 0"/><feBlend in2="effect1_innerShadow_102_3471" result="effect2_innerShadow_102_3471"/></filter><filter id="d" width="23.546" height="18.148" x=".727" y="19.001" color-interpolation-filters="sRGB" filterUnits="userSpaceOnUse"><feFlood flood-opacity="0" result="BackgroundImageFix"/><feBlend in="SourceGraphic" in2="BackgroundImageFix" result="shape"/><feColorMatrix in="SourceAlpha" result="hardAlpha" values="0 0 0 0 0 0 0 0 0 0 0 0 0 0 0 0 0 0 127 0"/><feOffset dy="-.212"/><feComposite in2="hardAlpha" k2="-1" k3="1" operator="arithmetic"/><feColorMatrix values="0 0 0 0 0 0 0 0 0 0 0 0 0 0 0 0 0 0 0.08 0"/><feBlend in2="shape" result="effect1_innerShadow_102_3471"/></filter></defs></svg>