<svg xmlns="http://www.w3.org/2000/svg" width="18" height="17" fill="none"><path fill="#fff" d="M9.055 1.503c2.175 0 2.433.008 3.292.047a4.529 4.529 0 0 1 1.513.28 2.698 2.698 0 0 1 1.547 1.543 4.5 4.5 0 0 1 .28 1.51c.039.857.048 1.114.048 3.285 0 2.17-.009 2.427-.048 3.284a4.5 4.5 0 0 1-.28 1.51 2.69 2.69 0 0 1-1.547 1.543 4.529 4.529 0 0 1-1.513.28c-.859.039-1.117.047-3.292.047-2.176 0-2.434-.008-3.292-.047a4.529 4.529 0 0 1-1.514-.28 2.699 2.699 0 0 1-1.546-1.543 4.5 4.5 0 0 1-.28-1.51c-.04-.857-.048-1.114-.048-3.284s.008-2.428.047-3.285a4.5 4.5 0 0 1 .281-1.51A2.691 2.691 0 0 1 4.249 1.83a4.529 4.529 0 0 1 1.514-.28c.859-.039 1.116-.047 3.292-.047Zm0-1.465c-2.212 0-2.49.01-3.36.049a5.994 5.994 0 0 0-1.978.378 3.992 3.992 0 0 0-1.442.938 3.981 3.981 0 0 0-.94 1.44 5.956 5.956 0 0 0-.38 1.973C.918 5.683.908 5.961.908 8.167c0 2.207.01 2.485.05 3.352.013.674.14 1.342.378 1.974.205.542.525 1.034.94 1.44.407.413.9.733 1.443.937a5.992 5.992 0 0 0 1.979.378c.869.039 1.146.049 3.359.049 2.212 0 2.49-.01 3.359-.049a5.99 5.99 0 0 0 1.978-.378 4.17 4.17 0 0 0 2.382-2.378c.238-.632.366-1.3.379-1.974.039-.867.048-1.144.048-3.35 0-2.207-.01-2.485-.049-3.352a5.957 5.957 0 0 0-.378-1.975 3.981 3.981 0 0 0-.94-1.44 3.993 3.993 0 0 0-1.443-.937 5.993 5.993 0 0 0-1.979-.378C11.545.047 11.266.038 9.055.038Z"/><path fill="#fff" d="M9.056 3.994a4.19 4.19 0 0 0-3.865 2.577 4.166 4.166 0 0 0 .907 4.55 4.186 4.186 0 0 0 4.56.904 4.168 4.168 0 0 0 1.357-6.808 4.189 4.189 0 0 0-2.959-1.223Zm0 6.884a2.72 2.72 0 0 1-2.509-1.672 2.704 2.704 0 0 1 .59-2.953 2.718 2.718 0 0 1 4.635 1.916c0 .718-.286 1.407-.795 1.916-.51.508-1.2.793-1.92.793ZM13.405 4.804a.977.977 0 1 0 .002-1.954.977.977 0 0 0-.002 1.954Z"/></svg>