<svg xmlns="http://www.w3.org/2000/svg" width="104" height="40" fill="none"><path fill="#007AFF" d="M16.5 2.5h21.08L22.083 25.473H1L16.5 2.5Z"/><path fill="#312ECB" d="M17.423 27.602 11.419 36.5h22.082l15.5-22.973H32.702l-9.496 14.075h-5.784Z"/><path fill="#000" d="M54.697 33.363a.73.73 0 0 1-.498-.211.824.824 0 0 1-.199-.528c0-.117.011-.223.033-.317l7.801-22.59c.067-.258.2-.481.399-.669.22-.21.52-.316.896-.316h4.913c.376 0 .664.105.863.316.221.188.365.41.432.669l7.767 22.59c.045.094.067.2.067.317 0 .188-.078.364-.233.528a.656.656 0 0 1-.498.211h-4.083c-.332 0-.586-.082-.763-.246-.155-.188-.255-.352-.299-.493l-1.294-3.59h-8.864l-1.261 3.59c-.045.14-.144.305-.3.493-.154.164-.42.246-.796.246h-4.083Zm7.801-9.395h6.175l-3.088-9.29-3.087 9.29ZM80.916 33.363a.785.785 0 0 1-.597-.246.969.969 0 0 1-.233-.634V15.945c0-.258.078-.47.233-.633a.785.785 0 0 1 .597-.247h3.917c.244 0 .443.083.598.247a.886.886 0 0 1 .232.633v16.538a.969.969 0 0 1-.232.634.785.785 0 0 1-.598.246h-3.917Zm-.033-20.937a.785.785 0 0 1-.598-.246.886.886 0 0 1-.232-.633V8.38a.84.84 0 0 1 .232-.599.74.74 0 0 1 .598-.281h3.983c.222 0 .41.094.565.282a.786.786 0 0 1 .265.598v3.167c0 .258-.088.469-.265.633a.747.747 0 0 1-.565.246h-3.983ZM92.116 33.363a.785.785 0 0 1-.598-.246.969.969 0 0 1-.232-.634V15.945a.84.84 0 0 1 .232-.598.74.74 0 0 1 .598-.282h3.817a.74.74 0 0 1 .598.282.786.786 0 0 1 .265.598v1.408a5.974 5.974 0 0 1 2.092-1.69c.84-.398 1.781-.598 2.821-.598h1.461c.244 0 .443.083.598.247a.885.885 0 0 1 .232.633v3.624a.968.968 0 0 1-.232.634.785.785 0 0 1-.598.246h-3.22c-.907 0-1.615.27-2.124.81-.487.515-.73 1.255-.73 2.216v9.008a.9.9 0 0 1-.266.634.785.785 0 0 1-.598.246h-4.116Z"/></svg>