<svg xmlns="http://www.w3.org/2000/svg" width="114" height="19" fill="none"><g fill="#FBAF5B" clip-path="url(#a)"><path d="M9.07.817c.335-.796 1.477-.796 1.812 0l1.98 4.701a.98.98 0 0 0 .828.595l5.137.407c.87.069 1.224 1.142.56 1.703l-3.914 3.313a.963.963 0 0 0-.316.961l1.196 4.953c.202.84-.722 1.502-1.467 1.053l-4.398-2.654a.992.992 0 0 0-1.024 0l-4.398 2.654c-.746.45-1.67-.214-1.467-1.053l1.196-4.953a.963.963 0 0 0-.316-.961L.564 8.223c-.663-.561-.31-1.634.56-1.703l5.138-.407a.98.98 0 0 0 .828-.595l1.98-4.7ZM32.484.817c.335-.796 1.477-.796 1.813 0l1.98 4.701a.981.981 0 0 0 .827.595l5.138.407c.87.069 1.223 1.142.56 1.703l-3.914 3.313a.963.963 0 0 0-.317.961l1.196 4.953c.203.84-.721 1.502-1.466 1.053l-4.399-2.654a.992.992 0 0 0-1.023 0l-4.399 2.654c-.745.45-1.67-.214-1.467-1.053l1.196-4.953a.963.963 0 0 0-.316-.961L23.98 8.223c-.663-.561-.31-1.634.56-1.703l5.138-.407a.98.98 0 0 0 .828-.595l1.979-4.7ZM55.898.817c.336-.796 1.478-.796 1.813 0l1.98 4.701a.98.98 0 0 0 .828.595l5.137.407c.87.069 1.224 1.142.56 1.703l-3.914 3.313a.963.963 0 0 0-.316.961l1.196 4.953c.202.84-.722 1.502-1.467 1.053l-4.398-2.654a.992.992 0 0 0-1.024 0l-4.398 2.654c-.746.45-1.67-.214-1.467-1.053l1.196-4.953a.963.963 0 0 0-.316-.961l-3.915-3.313c-.663-.561-.31-1.634.56-1.703l5.138-.407a.98.98 0 0 0 .828-.595l1.98-4.7ZM79.313.817c.335-.796 1.478-.796 1.813 0l1.98 4.701a.981.981 0 0 0 .827.595l5.138.407c.87.069 1.223 1.142.56 1.703l-3.914 3.313a.963.963 0 0 0-.317.961l1.196 4.953c.203.84-.721 1.502-1.466 1.053l-4.399-2.654a.992.992 0 0 0-1.023 0l-4.399 2.654c-.745.45-1.67-.214-1.466-1.053l1.195-4.953a.963.963 0 0 0-.316-.961l-3.914-3.313c-.663-.561-.31-1.634.56-1.703l5.138-.407a.98.98 0 0 0 .828-.595l1.979-4.7ZM102.728.817c.335-.796 1.477-.796 1.812 0l1.98 4.701a.98.98 0 0 0 .828.595l5.137.407c.871.069 1.224 1.142.561 1.703l-3.915 3.313a.965.965 0 0 0-.316.961l1.196 4.953c.203.84-.721 1.502-1.467 1.053l-4.398-2.654a.993.993 0 0 0-1.024 0l-4.398 2.654c-.746.45-1.67-.214-1.467-1.053l1.196-4.953a.963.963 0 0 0-.316-.961l-3.915-3.313c-.663-.561-.31-1.634.56-1.703l5.138-.407a.98.98 0 0 0 .828-.595l1.98-4.7Z"/></g><defs><clipPath id="a"><path fill="#fff" d="M.22.22h113.17v18.428H.22z"/></clipPath></defs></svg>