<svg xmlns="http://www.w3.org/2000/svg" width="15" height="12" fill="none"><path fill="#fff" d="M14.303 1.545a6.149 6.149 0 0 1-1.596.447A2.697 2.697 0 0 0 13.911.484c-.532.307-1.12.53-1.764.67a2.794 2.794 0 0 0-2.015-.866 2.745 2.745 0 0 0-2.744 2.738c0 .223.028.419.084.614A7.85 7.85 0 0 1 1.788.763a2.854 2.854 0 0 0-.364 1.369c0 .95.476 1.788 1.232 2.29a3.245 3.245 0 0 1-1.26-.335v.028c0 1.341.952 2.458 2.212 2.71a3.058 3.058 0 0 1-.728.084c-.168 0-.364-.028-.532-.056.364 1.09 1.372 1.9 2.576 1.9a5.61 5.61 0 0 1-3.416 1.173c-.224 0-.448 0-.644-.028a7.804 7.804 0 0 0 4.228 1.229c5.067 0 7.84-4.19 7.84-7.822v-.363a5.023 5.023 0 0 0 1.371-1.397Z"/></svg>